<mxfile host="app.diagrams.net" modified="2023-03-21T12:57:29.364Z" agent="5.0 (Macintosh; Intel Mac OS X 10_15_7) AppleWebKit/537.36 (KHTML, like Gecko) Chrome/111.0.0.0 Safari/537.36" etag="A0tBsgDQWSgronXJ7y44" version="21.0.2" type="github">
  <diagram name="第 1 页" id="hiB6K6lQFBCXRkyYEPv4">
    <mxGraphModel dx="975" dy="692" grid="1" gridSize="10" guides="1" tooltips="1" connect="1" arrows="1" fold="1" page="1" pageScale="1" pageWidth="827" pageHeight="1169" math="0" shadow="0">
      <root>
        <mxCell id="0" />
        <mxCell id="1" parent="0" />
        <mxCell id="UnCtMA4tS2ryBkTAateB-9" value="Extender" style="html=1;whiteSpace=wrap;" vertex="1" parent="1">
          <mxGeometry x="300" y="180" width="110" height="50" as="geometry" />
        </mxCell>
      </root>
    </mxGraphModel>
  </diagram>
</mxfile>
